<svg version="1.0" xmlns="http://www.w3.org/2000/svg" width="693.333" height="693.333" viewBox="0 0 520 520"><path d="M69.9.4c-.2.2-2.2.7-4.4 1-2.2.4-5.6 1.1-7.5 1.7C30.7 11.3 10.5 32 2.4 60 .6 66.2.5 74 .3 257c-.2 162 0 191.5 1.2 197.5 2 9.7 4 15.7 7.2 21.8 11.8 22.1 29.8 35.8 55.8 42.4 1.7.4 88.7.9 193.5 1 204.3.2 194.7.5 209.4-4.7 24.1-8.3 43.1-29.4 50.2-55.5 1.8-6.8 1.9-13.7 1.9-199.5 0-184.2-.1-192.8-1.9-199.5-5.1-19.6-17.3-36.5-34.4-47.6-7.9-5.2-14.7-8-25.7-10.9C450.9.3 440.5.2 260.4.1 155.9 0 70.1.2 69.9.4zm388.7 24.3c18.8 8 29.7 19.1 36.6 36.8l2.3 6V259c0 105.3-.3 192.6-.6 194-1.4 5.8-7.5 18.3-11.1 22.7-8.8 10.6-19.1 17.3-32.3 20.9-7.5 2.1-385.5 1.6-390-.5-1.6-.8-5.4-2.5-8.2-3.8-7.5-3.5-16.2-10.3-20.7-16.2-4-5.3-10-16.1-8.9-16.1.3 0 .1-.6-.5-1.2-3.1-3.9-3.2-12.4-2.9-201.6.1-104.3.5-190.6.9-191.7 1.5-4.7 6.9-15.3 9.9-19.5 8.1-11.3 22.4-20.5 36.4-23.4 1.1-.2 88-.3 193-.2l191 .1 5.1 2.2z"/><path d="M264.9 102.4c-.2.2-3.3.7-6.9 1-13.1 1.4-31.1 6.2-41.8 11.2-2.9 1.3-5.5 2.4-5.8 2.4-.2 0-4.2 2.1-8.7 4.6-26.3 14.8-47.4 37.3-60.5 64.5-3.4 7.1-9.3 22.9-10.8 28.8-.2.9-.8 3.4-1.3 5.6-2.8 11.5-3.6 20-3.6 38.5 0 16.4.8 26.4 2.5 33 .5 1.9 1.2 5.3 1.6 7.4 1.7 11.3 12.8 37.2 21.5 50.6 23.2 35.7 63.9 60.5 106.2 64.7 9.3 1 32.3 1 40.9 0 23.3-2.5 51-12.9 76.8-28.8l4.8-2.9-8.5-21.3c-4.7-11.6-9.8-24.7-11.5-29-1.6-4.2-3.5-7.7-4.1-7.7-.7 0-2.5.9-4.2 2-5.1 3.5-29.7 15.6-36.2 17.8-11.3 3.9-18.5 5.2-30.3 5.4-35.2.6-62.7-15.9-78.3-46.9-3.3-6.5-7.5-19.3-8.3-25.1-.3-2.6-.8-5.6-1-6.7-.7-3.1-.7-22.9 0-26.1.3-1.6.8-4.5 1-6.4 1.6-10.4 4.4-18.6 9.7-29.1 9.3-18 23.4-30.3 44.9-39.2 3.2-1.4 11.8-3.4 17.9-4.3 4.5-.6 20.4-.6 24.1 0 7.5 1.3 9.7 1.8 16 3.7 8.2 2.5 23.6 10 36.5 17.7 5.5 3.3 10.1 5.9 10.3 5.8.2-.3 17-48.8 19.5-56.4 1-3.1.9-3.6-1.4-5.3-1.3-1-10-5.7-19.4-10.4-16.3-8.1-33.6-14.7-41.9-15.9-2.1-.4-4.8-.8-6-1.1-1.2-.3-3.4-.7-5.1-1.1-3.4-.6-38-1.5-38.6-1z"/></svg>