<svg xmlns="http://www.w3.org/2000/svg" viewBox="0 0 1041.29 295.44"><path d="M135.66 138.68c-15.89 9.27-32.01 16.12-53.21 16.12-48.57 0-79.47-35.34-79.47-76.84C2.98 35.56 35.22.91 83.56.91c21.64 0 38.43 7.5 51.45 15.45L124.2 45.95C111.6 38 99.24 32.04 85.55 32.04c-27.38 0-45.27 19.43-45.27 45.49 0 25.6 17.89 45.25 45.04 45.25 13.68 0 24.73-5.29 38.19-12.8l12.15 28.7zM207.64 31.6h-16.12v34.88h17.01c8.62 0 17.65-7.06 17.65-17.22-.01-10.16-7.28-17.66-18.54-17.66m32.45 121.22c-12.58-22.52-22.51-57.19-39.96-57.19h-8.62v57.19h-35.1V2.67h58.74c28.26 0 47.24 21.42 47.24 46.38 0 15.67-8.38 29.35-21.85 36.88 6.63 5.72 10.14 10.38 15.68 20.95 1.98 3.99 19.87 39.76 23.18 45.95h-39.31zM356.67 32.47c-24.73 0-40.19 19-40.19 45.04 0 26.06 15.46 45.49 40.19 45.49 24.07 0 39.3-19.42 39.3-45.49 0-26.04-15.24-45.04-39.3-45.04m0 122.32c-48.13 0-77.05-37.96-77.05-77.28C279.62 39.33 307.87.9 356.67.9c48.13 0 76.61 38.64 76.61 76.61-.01 39.32-29.58 77.28-76.61 77.28M426.12 2.67h41.28l30.25 52.1 30.47-52.1h40.85l-53.66 85.67v64.48h-35.32V88.34zm191.73 121h17.23c29.8 0 44.37-21.41 44.37-45.48 0-26.5-15.23-46.59-44.6-46.59h-17v92.07zM637.73 2.68c46.8 0 78.6 32 78.6 75.51 0 43.93-31.79 74.63-80.36 74.63h-53.21V2.68h54.97zm171.11 29.79c-24.73 0-40.19 19-40.19 45.04 0 26.06 15.47 45.49 40.19 45.49 24.06 0 39.3-19.42 39.3-45.49-.01-26.04-15.24-45.04-39.3-45.04m0 122.32c-48.13 0-77.06-37.96-77.06-77.28C731.78 39.33 760.04.9 808.84.9c48.13 0 76.61 38.64 76.61 76.61-.01 39.32-29.59 77.28-76.61 77.28M1037.79 2.67v150.15h-29.14L942.4 59.64h-1.1c.22 7.94.88 16.12.88 23.62v69.56h-35.1V2.67h31.58l63.36 88.76h1.33c-.23-8.17-.66-16.78-.66-25.61V2.67h35.1zM83.08 215.5l-19.74 54.61h-8.38l-10.91-29.6c-1.14-3.45-1.61-5.17-1.61-5.17H42s-.34 1.72-1.6 5.17l-10.78 29.6h-8.27L1.5 215.5h13.32l9.74 29.94c1.04 3.09 1.28 4.48 1.28 4.48h.56s.23-1.39 1.27-4.6l10.45-29.82h8.38l10.44 29.82c.92 3.21 1.26 4.6 1.26 4.6h.57s.35-1.39 1.15-4.48l9.86-29.94h13.3zm83.08 0l-19.74 54.61h-8.37l-10.9-29.6c-1.14-3.45-1.61-5.17-1.61-5.17h-.45s-.35 1.72-1.61 5.17l-10.79 29.6h-8.27L84.58 215.5h13.31l9.75 29.94c1.04 3.09 1.27 4.48 1.27 4.48h.57s.23-1.39 1.26-4.6l10.44-29.82h8.39L140 245.32c.92 3.21 1.26 4.6 1.26 4.6h.58s.34-1.39 1.14-4.48l9.87-29.94h13.31zm83.09 0l-19.74 54.61h-8.37l-10.92-29.6c-1.14-3.45-1.61-5.17-1.61-5.17h-.46s-.34 1.72-1.59 5.17l-10.79 29.6h-8.27l-19.86-54.61h13.31l9.75 29.94c1.03 3.09 1.27 4.48 1.27 4.48h.57s.23-1.39 1.26-4.6l10.44-29.82h8.38l10.44 29.82c.91 3.21 1.26 4.6 1.26 4.6h.57s.35-1.39 1.15-4.48l9.86-29.94h13.35zm18.82 47.61c0 4.49-3.56 8.04-8.03 8.04-4.47 0-8.02-3.55-8.02-8.04 0-4.47 3.55-8.02 8.02-8.02 4.48 0 8.03 3.55 8.03 8.02m57.5 4.36c-4.93 2.07-10.79 3.68-17.44 3.68-16.31 0-28.23-11.93-28.23-28.22 0-16.64 11.81-28.46 27.88-28.46 6.53 0 12.05 1.6 17.44 3.89l-3.79 10.55c-4.49-2.29-8.38-3.55-12.16-3.55-9.77 0-15.5 7.45-15.5 17.32 0 9.99 5.85 17.44 15.73 17.44 3.67 0 7.22-.91 12.16-2.87l3.91 10.22zm35.68-41.07c-6.09 0-9.98 4.47-11.93 9.86v33.85h-13.41v-54.62h13.41v9.18h.12c4.13-6.66 9.18-10.44 14.57-10.22 2.99.12 6.19 1.28 10.57 4.03l-4.6 11.59c-3.68-2.41-6.66-3.67-8.73-3.67m29.03 16.18c0 11.13 5.63 18.26 13.78 18.26 8.72 0 13.89-7.59 13.89-18.26 0-9.97-5.17-17.79-13.89-17.79-8.38 0-13.78 7.46-13.78 17.79m41.77.1c0 16.87-12.85 28.46-27.99 28.46-16.4 0-27.77-12.84-27.77-28.57 0-15.72 12.04-28.11 27.77-28.11 15.26 0 27.99 11.82 27.99 28.22m63.81-27.18l-26.28 62.99c-4.7 11.23-13.76 15.94-22.83 15.94-.91 0-2.07-.11-3.1-.11V281.7c1.03.22 2.07.22 2.99.22 4.7 0 8.49-2.4 10.79-7.8l1.6-4.24-22.72-54.39h14.11s12.16 29.82 15.16 38.56h.91c3.09-8.74 15.26-38.56 15.26-38.56h14.11zm41.19 40.61v-26.96c-2.62-2.29-6.08-4.23-9.51-4.23-7.92 0-13.43 8.02-13.43 17.78 0 9.06 3.79 18.13 13.54 18.13 3.45-.01 6.89-1.95 9.4-4.72m13.32-64.02v78.03h-13.32v-4.03c-3.55 2.77-7.79 5.06-12.49 5.06-14.47 0-24.1-12.16-24.1-28.57 0-15.72 10.1-28.11 24.77-28.11 4.26 0 8.39 1.71 11.82 4.01v-26.39h13.32zm25.59 50.49c0 11.13 5.63 18.26 13.78 18.26 8.71 0 13.87-7.59 13.87-18.26 0-9.97-5.15-17.79-13.87-17.79-8.38 0-13.78 7.46-13.78 17.79m41.77.1c0 16.87-12.85 28.46-27.99 28.46-16.41 0-27.78-12.84-27.78-28.57 0-15.72 12.04-28.11 27.78-28.11 15.26 0 27.99 11.82 27.99 28.22m44.76-6.19c0-6.54-2.42-11.36-8.38-11.36-4.25 0-7.69 2.3-11.36 7.24v37.74h-13.43V215.5h13.43l.1 6.09c3.68-4.6 8.84-7.12 14.23-7.12 10.32 0 18.82 7.58 18.82 20.89v34.76h-13.43v-33.63zm45.33 26.62c0 4.49-3.55 8.04-8.03 8.04-4.49 0-8.03-3.55-8.03-8.04 0-4.47 3.55-8.02 8.03-8.02 4.47 0 8.03 3.55 8.03 8.02m48.31-7v-26.96c-2.53-2.3-6.09-4.24-9.42-4.24-7.91 0-13.43 8.03-13.43 17.78 0 9.06 3.69 18.13 13.43 18.13 3.57 0 6.89-1.95 9.42-4.71m-27.66 23.19c4.6 2.86 9.74 4.36 14.12 4.36 9.63 0 13.54-5.06 13.54-12.16v-5.52c-3.44 2.88-7.69 5.17-12.51 5.17-14.34 0-23.98-12.16-23.98-28.57 0-15.73 9.98-28.11 24.8-28.11 4.35 0 8.48 1.83 11.81 4.24v-3.21h13.19v54.74c0 14.91-9.63 24.2-26.15 24.2-8.03 0-14.69-2.64-19.97-5.85l5.15-9.29zm66.33-36.72c0 11.13 5.62 18.26 13.76 18.26 8.73 0 13.89-7.59 13.89-18.26 0-9.97-5.16-17.79-13.89-17.79-8.37 0-13.76 7.46-13.76 17.79m41.77.1c0 16.87-12.86 28.46-28.01 28.46-16.4 0-27.76-12.84-27.76-28.57 0-15.72 12.04-28.11 27.76-28.11 15.27 0 28.01 11.82 28.01 28.22m57.6-27.18l-23.06 54.61h-8.84l-22.94-54.61h13.99l11.59 30.97c1.26 3.55 1.6 5.17 1.6 5.17h.46s.46-1.62 1.72-5.17l11.37-30.97h14.11zm18.71 47.61c0 4.49-3.55 8.04-8.03 8.04-4.49 0-8.03-3.55-8.03-8.04 0-4.47 3.55-8.02 8.03-8.02 4.48 0 8.03 3.55 8.03 8.02m28.01-14c0 6.43 2.64 11.36 8.5 11.36 4.12 0 7.56-2.3 11.35-7.11v-37.88h13.43v54.62h-13.43v-5.95c-3.79 4.57-8.95 6.99-14.46 6.99-10.33 0-18.82-7.58-18.82-21v-34.66h13.43v33.63zm98.1-33.61l-23.87 22.6 24.45 32.01h-16.53l-20.76-28.21-.35.1v28.11H988.5v-78.02h13.43v41.87h.12l18.35-18.46z" fill="#fff"/></svg>